<svg xmlns="http://www.w3.org/2000/svg" viewBox="0 0 26.122 18.538">
    <defs>
        <style>
            .cls-1{fill:#fff}
        </style>
    </defs>
    <g id="list-symbol-of-three-items-with-dots" transform="translate(0 -88.839)">
        <g id="_x33__32_" transform="translate(0 88.839)">
            <g id="Group_120" data-name="Group 120">
                <path id="Path_921" d="M2.528 88.839a2.528 2.528 0 1 0 2.528 2.528 2.528 2.528 0 0 0-2.528-2.528zm0 6.741a2.528 2.528 0 1 0 2.528 2.528 2.528 2.528 0 0 0-2.528-2.528zm0 6.741a2.528 2.528 0 1 0 2.528 2.528 2.528 2.528 0 0 0-2.528-2.528zm5.9-9.269h16.01a1.685 1.685 0 1 0 0-3.371H8.427a1.685 1.685 0 1 0 0 3.371zm16.01 3.371H8.427a1.685 1.685 0 0 0 0 3.371h16.01a1.685 1.685 0 0 0 0-3.371zm0 6.741H8.427a1.685 1.685 0 1 0 0 3.371h16.01a1.685 1.685 0 0 0 0-3.371z" class="cls-1" data-name="Path 921" transform="translate(0 -88.839)"/>
            </g>
        </g>
    </g>
</svg>
